<?xml version="1.0" standalone="no"?>
<svg xmlns="http://www.w3.org/2000/svg" viewBox="0 0 95.06 109.766" width="95.06" height="109.766"><polygon fill="#7aa9ff" points="95.06,27.4415 95.06,82.3245 47.53,109.766 0,82.3245 0,27.4415 47.53,0"></polygon><g fill="white" color="white" transform="translate(25.53 30.678000000000004) scale(0.5271355)"><svg width="83.47" height="38.84" x="0.0" y="0.0" viewBox="0 0 83.47 38.84"><title></title><g data-name="Layer 2"><g data-name="Layer 1"><path d="M66.13,7.5a2,2,0,0,1-1.5-3.32A12.17,12.17,0,0,1,83,4.16a2,2,0,1,1-3,2.63,8.18,8.18,0,0,0-12.32,0A2,2,0,0,1,66.13,7.5ZM3.51,6.81a8.18,8.18,0,0,1,12.32,0,2,2,0,0,0,3-2.63,12.18,12.18,0,0,0-18.35,0A2,2,0,0,0,2,7.5,2,2,0,0,0,3.51,6.81ZM59.27,21.6c-3.76,4.86-10.16,7.64-17.53,7.64-1,0-1.9,0-2.82-.14L35.57,35a7.57,7.57,0,0,1-13.19-7.43l2.75-4.83c-.33-.37-.66-.75-1-1.15a2,2,0,1,1,3.21-2.39c2.83,3.8,8.19,6.06,14.36,6.06,8.7,0,12.95-4.26,14.37-6.09a2,2,0,0,1,3.16,2.45ZM36.79,28.79a21.47,21.47,0,0,1-10.18-4.62l-2.48,4.37A5.56,5.56,0,1,0,33.82,34Z"></path></g></g></svg></g><path fill="white" fill-rule="nonzero" d="M15.01 19.94L15.01 8.04L11.42 15.60Q10.64 17.11 9.48 17.11Q8.32 17.11 7.53 15.51L7.53 15.51L3.89 8.04L3.89 19.94L0 19.94L0 0L3.84 0L9.46 11.51L15.06 0L18.90 0L18.90 19.94L15.01 19.94ZM38.02 9.88L38.02 9.88L38.05 12.04Q37.94 14.08 37.55 15.48Q37.16 16.88 36.01 18.03L36.01 18.03Q34.10 19.94 30.46 19.94L30.46 19.94Q26.18 19.94 24.58 18.80Q22.99 17.67 22.99 14.70L22.99 14.70L22.99 0L30.74 0Q34.10 0 36.01 1.90L36.01 1.90Q37.55 3.44 37.83 5.66L37.83 5.66Q38.02 7.22 38.02 9.88ZM33.29 15.23Q33.82 14.59 33.98 13.45Q34.13 12.32 34.13 9.91Q34.13 7.50 33.98 6.43Q33.82 5.35 33.29 4.70L33.29 4.70Q32.28 3.47 30.38 3.47L30.38 3.47L26.88 3.47L26.88 14.50Q26.88 15.62 27.64 16.04Q28.39 16.46 30.34 16.46Q32.28 16.46 33.29 15.23L33.29 15.23ZM56.17 19.94L56.17 8.04L52.58 15.60Q51.80 17.11 50.64 17.11Q49.48 17.11 48.69 15.51L48.69 15.51L45.05 8.04L45.05 19.94L41.16 19.94L41.16 0L45.00 0L50.62 11.51L56.22 0L60.06 0L60.06 19.94L56.17 19.94Z" transform="translate(17.5, 59.152)"></path></svg>