<?xml version="1.0" standalone="no"?>
<svg xmlns="http://www.w3.org/2000/svg" viewBox="0 0 203.448 23.04" width="203.448" height="23.04"><g fill="#fea701" color="#fea701" transform="translate(0, 2.721) scale(0.3474303)"><svg width="83.47" height="38.84" x="0.0" y="0.0" viewBox="0 0 83.47 38.84"><title></title><g data-name="Layer 2"><g data-name="Layer 1"><path d="M66.13,7.5a2,2,0,0,1-1.5-3.32A12.17,12.17,0,0,1,83,4.16a2,2,0,1,1-3,2.63,8.18,8.18,0,0,0-12.32,0A2,2,0,0,1,66.13,7.5ZM3.51,6.81a8.18,8.18,0,0,1,12.32,0,2,2,0,0,0,3-2.63,12.18,12.18,0,0,0-18.35,0A2,2,0,0,0,2,7.5,2,2,0,0,0,3.51,6.81ZM59.27,21.6c-3.76,4.86-10.16,7.64-17.53,7.64-1,0-1.9,0-2.82-.14L35.57,35a7.57,7.57,0,0,1-13.19-7.43l2.75-4.83c-.33-.37-.66-.75-1-1.15a2,2,0,1,1,3.21-2.39c2.83,3.8,8.19,6.06,14.36,6.06,8.7,0,12.95-4.26,14.37-6.09a2,2,0,0,1,3.16,2.45ZM36.79,28.79a21.47,21.47,0,0,1-10.18-4.62l-2.48,4.37A5.56,5.56,0,1,0,33.82,34Z"></path></g></g></svg></g><line x1="41" y1="1" x2="41" y2="17.936" stroke="#7aa9ff" stroke-linecap="round"></line><path fill="#7aa9ff" fill-rule="nonzero" d="M12.86 18.94L12.86 8.74L9.79 15.22Q9.12 16.51 8.12 16.51Q7.13 16.51 6.46 15.14L6.46 15.14L3.34 8.74L3.34 18.94L0 18.94L0 1.85L3.29 1.85L8.11 11.71L12.91 1.85L16.20 1.85L16.20 18.94L12.86 18.94ZM26.18 5.23L29.47 5.23L24.26 20.47Q23.90 21.50 23.33 22.08L23.33 22.08Q22.37 23.04 20.64 23.04L20.64 23.04L19.18 23.04L19.18 20.23L20.14 20.23Q20.81 20.23 21.13 20.00Q21.46 19.78 21.70 19.10L21.70 19.10L21.94 18.43L17.81 5.23L21.10 5.23L23.54 14.76L26.18 5.23ZM50.02 10.32L50.02 10.32L50.04 12.17Q49.94 13.92 49.61 15.12Q49.27 16.32 48.29 17.30L48.29 17.30Q46.66 18.94 43.54 18.94L43.54 18.94Q39.86 18.94 38.50 17.96Q37.13 16.99 37.13 14.45L37.13 14.45L37.13 1.85L43.78 1.85Q46.66 1.85 48.29 3.48L48.29 3.48Q49.61 4.80 49.85 6.70L49.85 6.70Q50.02 8.04 50.02 10.32ZM45.96 14.90Q46.42 14.35 46.55 13.38Q46.68 12.41 46.68 10.34Q46.68 8.28 46.55 7.36Q46.42 6.43 45.96 5.88L45.96 5.88Q45.10 4.82 43.46 4.82L43.46 4.82L40.46 4.82L40.46 14.28Q40.46 15.24 41.11 15.60Q41.76 15.96 43.43 15.96Q45.10 15.96 45.96 14.90L45.96 14.90ZM62.14 5.14L62.14 18.94L60.05 18.94L59.09 17.28L55.75 19.08Q52.97 19.08 52.01 17.06L52.01 17.06Q51.53 16.08 51.35 14.94Q51.17 13.80 51.17 12.56Q51.17 11.33 51.19 10.74Q51.22 10.15 51.31 9.37Q51.41 8.59 51.59 8.06Q51.77 7.54 52.10 6.97Q52.44 6.41 52.92 6.07L52.92 6.07Q54 5.33 55.73 5.33L55.73 5.33L59.02 5.33L62.14 5.14ZM56.64 15.79L59.02 14.57L59.02 8.14L56.64 8.14Q55.32 8.14 54.80 9.14Q54.29 10.15 54.29 12.16Q54.29 14.16 54.78 14.98Q55.27 15.79 56.64 15.79L56.64 15.79ZM67.10 0Q68.23 0 68.57 0.35Q68.90 0.70 68.90 1.81Q68.90 2.93 68.56 3.28Q68.21 3.62 67.09 3.62Q65.98 3.62 65.63 3.26Q65.28 2.90 65.28 1.80Q65.28 0.70 65.63 0.35Q65.98 0 67.10 0ZM68.64 5.74L68.64 18.94L65.52 18.94L65.52 5.74L68.64 5.74ZM75.12 0.89L75.12 18.94L72 18.96L72 0.89L75.12 0.89ZM85.20 5.23L88.49 5.23L83.28 20.47Q82.92 21.50 82.34 22.08L82.34 22.08Q81.38 23.04 79.66 23.04L79.66 23.04L78.19 23.04L78.19 20.23L79.15 20.23Q79.82 20.23 80.15 20.00Q80.47 19.78 80.71 19.10L80.71 19.10L80.95 18.43L76.82 5.23L80.11 5.23L82.56 14.76L85.20 5.23ZM108.77 18.94L108.77 8.74L105.70 15.22Q105.02 16.51 104.03 16.51Q103.03 16.51 102.36 15.14L102.36 15.14L99.24 8.74L99.24 18.94L95.90 18.94L95.90 1.85L99.19 1.85L104.02 11.71L108.82 1.85L112.10 1.85L112.10 18.94L108.77 18.94ZM116.95 0Q118.08 0 118.42 0.35Q118.75 0.70 118.75 1.81Q118.75 2.93 118.40 3.28Q118.06 3.62 116.94 3.62Q115.82 3.62 115.48 3.26Q115.13 2.90 115.13 1.80Q115.13 0.70 115.48 0.35Q115.82 0 116.95 0ZM118.49 5.74L118.49 18.94L115.37 18.94L115.37 5.74L118.49 5.74ZM131.40 5.14L131.40 18.94L129.31 18.94L128.35 17.28L125.02 19.08Q122.23 19.08 121.27 17.06L121.27 17.06Q120.79 16.08 120.61 14.94Q120.43 13.80 120.43 12.56Q120.43 11.33 120.46 10.74Q120.48 10.15 120.58 9.37Q120.67 8.59 120.85 8.06Q121.03 7.54 121.37 6.97Q121.70 6.41 122.18 6.07L122.18 6.07Q123.26 5.33 124.99 5.33L124.99 5.33L128.28 5.33L131.40 5.14ZM125.90 15.79L128.28 14.57L128.28 8.14L125.90 8.14Q124.58 8.14 124.07 9.14Q123.55 10.15 123.55 12.16Q123.55 14.16 124.04 14.98Q124.54 15.79 125.90 15.79L125.90 15.79ZM152.45 9.74L152.45 18.94L149.33 18.94L149.33 10.42Q149.33 9.14 149.03 8.64Q148.73 8.14 147.98 8.14L147.98 8.14L145.18 9.31L145.18 18.94L142.06 18.94L142.06 10.42Q142.06 8.14 140.47 8.14L140.47 8.14L137.90 9.31L137.90 18.94L134.78 18.94L134.78 5.23L137.11 5.23L137.83 6.86L141.43 5.09Q143.30 5.09 144.26 6.91L144.26 6.91L148.73 5.09Q150.60 5.09 151.52 6.35Q152.45 7.61 152.45 9.74L152.45 9.74Z" transform="translate(51, 0)"></path></svg>